HIERARCHY
ROOT root
{
	OFFSET	0	13.1	24.9
	CHANNELS 6  Xposition Yposition Zposition Xrotation Yrotation Zrotation
	JOINT spine_1
	{
		OFFSET	0	9.99999	0
		CHANNELS 3  Xrotation Yrotation Zrotation
		JOINT spine_2
		{
			OFFSET	0	112	-10
			CHANNELS 3  Xrotation Yrotation Zrotation
			JOINT spine_3
			{
				OFFSET	0	206.5	19.3
				CHANNELS 3  Xrotation Yrotation Zrotation
				JOINT spine_4
				{
					OFFSET	0	110.4	14.6
					CHANNELS 3  Xrotation Yrotation Zrotation
					JOINT neck_1
					{
						OFFSET	0	71.8	-50.3
						CHANNELS 3  Xrotation Yrotation Zrotation
						JOINT neck_2
						{
							OFFSET	0	86.2	-25.8
							CHANNELS 3  Xrotation Yrotation Zrotation
							JOINT head_ee
							{
								OFFSET	0	179.8	-8.7
								CHANNELS 3  Xrotation Yrotation Zrotation
								End Site
								{
									OFFSET	1	0	0
								}
							}
						}
					}
					JOINT left_clavicle
					{
						OFFSET	-43.2	22.4	-70.8
						CHANNELS 3  Xrotation Yrotation Zrotation
						JOINT left_shoulder
						{
							OFFSET	-93.9	-5.79999	48.7
							CHANNELS 3  Xrotation Yrotation Zrotation
							JOINT left_elbow
							{
								OFFSET	-291.4	-30.8	15.2
								CHANNELS 3  Xrotation Yrotation Zrotation
								JOINT left_lowarm_twist
								{
									OFFSET	-110.7	-3.89999	13.6
									CHANNELS 3  Xrotation Yrotation Zrotation
									JOINT left_hand
									{
										OFFSET	-110.7	-3.89999	13.6
										CHANNELS 3  Xrotation Yrotation Zrotation
										JOINT left_ee
										{
											OFFSET	-80.8	-5.10001	12.1
											CHANNELS 3  Xrotation Yrotation Zrotation
											End Site
											{
												OFFSET	1	0	0
											}
										}
									}
								}
							}
						}
					}
					JOINT right_clavicle
					{
						OFFSET	43.2	22.4	-70.8
						CHANNELS 3  Xrotation Yrotation Zrotation
						JOINT right_shoulder
						{
							OFFSET	93.9	-5.79999	48.7
							CHANNELS 3  Xrotation Yrotation Zrotation
							JOINT right_elbow
							{
								OFFSET	291.4	-30.8	15.2
								CHANNELS 3  Xrotation Yrotation Zrotation
								JOINT right_lowarm_twist
								{
									OFFSET	110.7	-3.89999	13.6
									CHANNELS 3  Xrotation Yrotation Zrotation
									JOINT right_hand
									{
										OFFSET	110.7	-3.89999	13.6
										CHANNELS 3  Xrotation Yrotation Zrotation
										JOINT right_ee
										{
											OFFSET	80.8	-5.10001	12.1
											CHANNELS 3  Xrotation Yrotation Zrotation
											End Site
											{
												OFFSET	1	0	0
											}
										}
									}
								}
							}
						}
					}
				}
			}
		}
	}
	JOINT left_hip
	{
		OFFSET	-82.8	-127.5	0.300001
		CHANNELS 3  Xrotation Yrotation Zrotation
		JOINT left_knee
		{
			OFFSET	-28.2	-396.7	2.2
			CHANNELS 3  Xrotation Yrotation Zrotation
			JOINT left_ankle
			{
				OFFSET	-11.7	-411.3	35.4
				CHANNELS 3  Xrotation Yrotation Zrotation
				JOINT left_toes
				{
					OFFSET	0	-60	-88.6
					CHANNELS 3  Xrotation Yrotation Zrotation
					JOINT left_foot_ee
					{
						OFFSET	-22.5	-16.5	-42.2
						CHANNELS 3  Xrotation Yrotation Zrotation
						End Site
						{
							OFFSET	1	0	0
						}
					}
				}
			}
		}
	}
	JOINT right_hip
	{
		OFFSET	82.8	-127.5	0.300001
		CHANNELS 3  Xrotation Yrotation Zrotation
		JOINT right_knee
		{
			OFFSET	28.2	-396.7	2.2
			CHANNELS 3  Xrotation Yrotation Zrotation
			JOINT right_ankle
			{
				OFFSET	11.7	-411.3	35.4
				CHANNELS 3  Xrotation Yrotation Zrotation
				JOINT right_toes
				{
					OFFSET	0	-60	-88.6
					CHANNELS 3  Xrotation Yrotation Zrotation
					JOINT right_foot_ee
					{
						OFFSET	22.5	-16.5	-42.2
						CHANNELS 3  Xrotation Yrotation Zrotation
						End Site
						{
							OFFSET	1	0	0
						}
					}
				}
			}
		}
	}
}
MOTION
Frames: 12
Frame Time: 0.02
1641.64 743.197 -409.233 145.32 -70.0229 143.752 -3.82021 -0.0744954 -0.373046 -3.82013 -0.0506067 -0.377031 -3.81967 0.0549649 -0.37642 -3.81987 -0.00517297 -0.380377 -16.218 4.37665 1.38547 -16.2695 7.59903 2.84373 -0.0 0.0 -0.0 -0.91726 9.76893 -0.429432 -4.12756 1.17189 80.6794 0.376868 -10.575 0.0348781 -2.24444 -0.0844686 0.274138 -2.02404 20.9657 -3.49638 -0.0 0.0 -0.0 2.75491 14.8242 -4.09084 11.8667 22.3546 -69.7752 2.11066 46.2701 -0.901882 54.3899 1.3007 6.56702 0.992943 -4.33772 -8.38591 0.0 0.0 0.0 -4.97665 32.3168 -9.80065 -13.6349 0.317155 2.06349 15.9277 16.0682 -2.23882 -4.61157 0.0 0.0 -0.0 0.0 -0.0 4.94356 31.8373 -10.2703 -17.0522 -0.319085 -2.58773 23.1524 -14.6091 3.14249 -5.86038 0.0 0.0 0.0 0.0 0.0 
1645.34 743.868 -407.737 144.262 -70.4214 142.442 -3.88763 -0.0681416 -0.353538 -3.88756 -0.0455071 -0.357157 -3.88716 0.0548253 -0.355846 -3.88734 -0.00206163 -0.360039 -15.7906 4.23128 0.942586 -15.8419 7.55985 2.34747 -0.0 0.0 -0.0 -0.815751 10.1889 -0.196502 -3.79766 1.16057 80.2457 0.389099 -10.9101 0.0371579 -2.24919 -0.084659 0.274714 -2.14635 21.9104 -3.74748 -0.0 0.0 -0.0 2.77505 14.0513 -4.2043 11.8241 22.0965 -70.1512 2.14087 46.6766 -0.923788 54.3703 1.29914 6.56506 1.08493 -4.01517 -8.87239 0.0 0.0 0.0 -4.55078 32.4409 -9.85325 -10.8675 0.292691 1.63962 15.0826 17.3625 -2.13477 -4.90665 0.0 0.0 -0.0 0.0 -0.0 4.78496 31.9272 -10.4267 -17.0623 -0.319044 -2.58927 23.7982 -15.295 3.22569 -6.11134 0.0 0.0 0.0 0.0 0.0 
1647.33 744.756 -408.246 144.115 -70.4738 142.415 -3.92199 -0.102901 -0.38535 -3.92191 -0.0781721 -0.391116 -3.92123 0.0330364 -0.397481 -3.92145 -0.0301525 -0.39771 -16.2384 4.0932 0.802926 -16.2908 7.38969 2.19829 -0.0 0.0 -0.0 -0.718362 10.2537 -0.0202138 -3.17788 1.28846 80.0798 0.33961 -9.54981 0.0283682 -2.06458 -0.0773043 0.252292 -2.19918 22.6239 -3.6989 -0.0 0.0 -0.0 2.99725 13.6126 -4.71262 11.2639 21.5576 -69.6885 2.11332 46.3062 -0.903809 54.4889 1.30858 6.57696 1.14322 -3.78869 -9.17288 0.0 0.0 0.0 -3.87077 32.4299 -10.3649 -8.76334 0.260407 1.31839 14.9221 18.1432 -2.11852 -4.90782 0.0 0.0 -0.0 0.0 -0.0 4.66815 32.2538 -10.6505 -17.0097 -0.319253 -2.58121 24.2807 -14.8182 3.27943 -5.95068 0.0 0.0 0.0 0.0 0.0 
1650.25 743.52 -408.061 144.495 -70.7974 143.166 -3.91922 -0.0767117 -0.434673 -3.91911 -0.0488972 -0.438673 -3.91857 0.0743019 -0.435091 -3.91883 0.00465557 -0.441365 -16.3907 4.0852 0.6754 -16.4456 7.45147 2.08619 -0.0 0.0 -0.0 -0.564175 10.4479 0.270154 -3.06377 1.46116 79.9186 0.371261 -10.4211 0.0338565 -1.84115 -0.0684995 0.225123 -2.23325 23.118 -3.64809 -0.0 0.0 -0.0 3.29956 13.4335 -5.36559 10.9146 20.9104 -69.6016 2.11938 46.3881 -0.908189 54.7547 1.32983 6.60356 1.17478 -3.66375 -9.33499 0.0 0.0 0.0 -3.23389 32.417 -10.6882 -6.56633 0.21413 0.98444 14.3841 18.5426 -2.04896 -4.92629 0.0 0.0 -0.0 0.0 -0.0 5.00766 32.3973 -11.069 -16.8761 -0.31975 -2.56071 24.695 -15.0755 3.33078 -6.32414 0.0 0.0 0.0 0.0 0.0 
1656.47 743.976 -405.557 142.184 -71.7642 140.885 -3.87964 -0.186125 -0.463462 -3.87954 -0.156257 -0.474366 -3.87801 -0.0193599 -0.499063 -3.87835 -0.0979337 -0.489743 -15.5806 3.85217 0.583135 -15.6252 7.03651 1.86459 -0.0 0.0 -0.0 -0.564357 10.6606 0.297537 -2.88437 1.5084 79.618 0.402781 -11.284 0.0397913 -1.6842 -0.0623779 0.206017 -2.24437 23.4634 -3.53849 -0.0 0.0 -0.0 3.34262 13.1243 -5.48266 10.5034 20.4937 -69.4022 2.06841 45.6915 -0.871501 54.732 1.32801 6.6013 1.17495 -3.83439 -9.40326 0.0 0.0 0.0 -3.3754 32.4651 -10.7079 -4.54086 0.160145 0.678302 14.0662 18.7717 -2.00758 -4.93499 0.0 0.0 -0.0 0.0 -0.0 4.75366 32.5085 -11.2318 -16.9887 -0.319334 -2.57799 24.7804 -14.3451 3.33491 -6.52748 0.0 0.0 0.0 0.0 0.0 
1657.97 742.749 -404.14 143.273 -72.0496 142.369 -3.83754 -0.124253 -0.599395 -3.83735 -0.0858605 -0.606086 -3.83611 0.084197 -0.60632 -3.83662 -0.0126147 -0.612008 -15.6041 4.07895 0.417532 -15.6566 7.56807 1.78848 -0.0 0.0 -0.0 -0.563275 10.841 0.322881 -2.48406 1.75849 79.1978 0.45765 -12.7736 0.0512272 -1.5827 -0.0584473 0.193654 -2.2924 23.9189 -3.58372 -0.0 0.0 -0.0 3.34192 13.401 -5.45767 9.07432 20.1624 -68.9508 2.06452 45.6377 -0.868721 54.8075 1.33407 6.60884 1.19851 -3.6234 -9.47813 0.0 0.0 0.0 -3.28906 32.4052 -10.9441 -3.14377 0.116613 0.468316 14.3826 17.7042 -2.04319 -4.92001 0.0 0.0 -0.0 0.0 -0.0 5.39381 32.5233 -11.8275 -17.0179 -0.319221 -2.58247 24.9426 -14.7706 3.35749 -6.80937 0.0 0.0 0.0 0.0 0.0 
1660.22 742.697 -405.251 143.765 -72.3187 143.097 -3.81687 -0.0896711 -0.610135 -3.81666 -0.0506656 -0.614604 -3.8158 0.120165 -0.604869 -3.81631 0.0231307 -0.616255 -15.5718 4.08596 0.367836 -15.6249 7.60973 1.74196 -0.0 0.0 -0.0 -0.451482 10.7665 0.503952 -2.12458 1.87075 78.8759 0.477661 -13.3126 0.0557433 -1.40534 -0.051631 0.172032 -2.26907 23.9013 -3.45937 -0.0 0.0 -0.0 3.37699 13.1755 -5.55069 8.49652 19.794 -68.6699 2.04057 45.3035 -0.851642 54.924 1.34344 6.62047 1.20334 -3.61259 -9.50622 0.0 0.0 0.0 -3.2993 32.4673 -11.0897 -2.02249 0.0779751 0.300573 13.9816 17.9227 -1.99053 -4.84772 0.0 0.0 -0.0 0.0 -0.0 5.65486 32.5707 -11.9936 -17.0069 -0.319264 -2.58078 25.2214 -14.778 3.39036 -6.92586 0.0 0.0 0.0 0.0 0.0 
1663.3 740.6 -404.561 144.102 -72.3493 143.51 -3.80406 -0.0711162 -0.635086 -3.80383 -0.0305608 -0.638324 -3.80316 0.145878 -0.622184 -3.8037 0.0457867 -0.637413 -15.2804 4.06118 0.24593 -15.332 7.62711 1.59883 -0.0 0.0 -0.0 -0.290316 10.7466 0.776461 -1.69644 1.86409 78.4987 0.508719 -14.1445 0.0631144 -1.31611 -0.0482278 0.161148 -2.27834 24.0652 -3.42959 -0.0 0.0 -0.0 3.34177 13.2269 -5.47216 7.92159 19.6265 -68.7396 2.0193 45.0034 -0.836563 54.9242 1.34345 6.62049 1.20772 -3.62045 -9.53864 0.0 0.0 0.0 -3.07803 32.4201 -11.0241 -1.04458 0.0415994 0.154904 14.1005 17.7225 -2.00533 -4.79641 0.0 0.0 -0.0 0.0 -0.0 5.93253 32.5591 -12.4696 -16.9979 -0.319298 -2.5794 25.3201 -14.6404 3.4008 -7.05529 0.0 0.0 0.0 0.0 0.0 
1668.64 742.05 -405.224 144.434 -72.4119 144.227 -3.69023 -0.0566766 -0.733343 -3.68993 -0.00989853 -0.735463 -3.68939 0.191011 -0.710296 -3.69009 0.0764387 -0.731547 -15.0643 4.05425 0.126818 -15.1153 7.6796 1.46945 -0.0 0.0 -0.0 -0.202676 11.1993 0.981049 -1.20927 1.90471 78.1814 0.582006 -16.0829 0.0822255 -1.50129 -0.0553106 0.183733 -2.41509 24.7449 -3.86008 -0.0 0.0 -0.0 3.27088 13.285 -5.31787 6.35975 19.2652 -68.479 1.97204 44.3253 -0.80334 54.6779 1.32368 6.59589 1.24418 -3.02729 -9.54973 0.0 0.0 0.0 -2.89879 32.2172 -10.9268 -0.469681 0.0190547 0.0695588 13.0258 17.4023 -1.85792 -4.79023 0.0 0.0 -0.0 0.0 -0.0 6.01047 32.5504 -12.8041 -17.126 -0.318781 -2.59904 25.1068 -14.3852 3.37368 -7.75865 0.0 0.0 0.0 0.0 0.0 
1674.05 738.934 -404.809 144.013 -72.7559 144.025 -3.633 -0.0442601 -0.807346 -3.63263 0.00720145 -0.808526 -3.63226 0.226614 -0.776154 -3.63309 0.101195 -0.802201 -14.8131 4.05611 0.0772375 -14.863 7.70751 1.40606 -0.0 0.0 -0.0 -0.0881793 11.2017 1.17545 -0.770066 1.92749 77.8651 0.636783 -17.5077 0.0980548 -1.58688 -0.0586087 0.194163 -2.49743 25.098 -4.14274 -0.0 0.0 -0.0 3.28916 13.2237 -5.36162 5.002 19.0215 -68.3515 1.93149 43.7308 -0.775162 54.54 1.31266 6.58208 1.27762 -2.62801 -9.6168 0.0 0.0 0.0 -2.23954 31.8878 -10.9592 -0.101867 0.00418126 0.0150733 12.6646 17.0308 -1.80677 -4.70834 0.0 0.0 -0.0 0.0 -0.0 5.94086 32.5599 -12.9168 -17.368 -0.317685 -2.63615 25.331 -14.1046 3.39777 -8.16368 0.0 0.0 0.0 0.0 0.0 
1677.37 733.485 -406.646 145.677 -72.2544 145.966 -3.58885 -0.0244473 -0.962056 -3.58834 0.0368175 -0.961662 -3.58832 0.296033 -0.915708 -3.58946 0.147705 -0.950965 -13.9362 4.10716 0.00771348 -13.9817 7.82866 1.29637 -0.0 0.0 -0.0 -0.0642182 11.5916 1.26214 -0.62168 2.00763 77.8926 0.773021 -20.9534 0.142948 -1.26916 -0.0464433 0.155418 -2.41574 25.513 -3.46898 -0.0 0.0 -0.0 3.21022 14.7689 -5.06044 3.93977 19.4164 -68.14 1.85483 42.5734 -0.722726 54.5399 1.31265 6.58207 1.40184 -1.64595 -10.0651 0.0 0.0 0.0 -1.70148 31.7912 -10.3416 0.200328 -0.00830084 -0.0296212 11.0489 17.0007 -1.585 -4.73473 0.0 0.0 -0.0 0.0 -0.0 6.00511 32.6094 -13.1084 -17.4348 -0.317354 -2.6464 27.7534 -13.0164 3.66767 -8.61213 0.0 0.0 0.0 0.0 0.0 
1681.02 735.032 -410.757 147.567 -72.3726 147.596 -3.49639 -0.149277 -0.934808 -3.49591 -0.0894927 -0.942411 -3.49372 0.167677 -0.931683 -3.49493 0.0184376 -0.946471 -13.4008 4.09542 -0.0952805 -13.4429 7.85835 1.15781 -0.0 0.0 -0.0 0.251967 11.1512 1.74636 0.318404 1.98484 77.9906 0.74151 -20.1694 0.13188 -1.65586 -0.0612783 0.202567 -2.55768 25.6082 -4.21534 -0.0 0.0 -0.0 3.08036 15.3093 -4.73668 2.84253 19.2896 -68.0907 1.80016 41.7209 -0.686039 54.3286 1.29583 6.56086 1.32206 -2.10875 -9.71033 0.0 0.0 0.0 -1.4963 31.6777 -9.7028 0.260868 -0.0108298 -0.0385674 10.2699 16.774 -1.47617 -4.66627 0.0 0.0 -0.0 0.0 -0.0 6.02487 32.0491 -12.0621 -17.4038 -0.317509 -2.64165 27.3429 -12.8782 3.62032 -8.72437 0.0 0.0 0.0 0.0 0.0 
